# xmcd
#
# Track frame offsets: 
#        150
#        10814
#        22581
#        32275
#        39021
#        48938
#        58117
#        64788
#        75457
#        84726
#        93238
#        102139
#        111450
#        120763
#        127903
#        136427
#        144003
#        152065
#        160321
#        172786
#
# Disc length: 2459 seconds
#
# Revision: 0
# Processed by: cddbd v1.5.2PL0 Copyright (c) Steve Scherf et al.
# Submitted via: ExactAudioCopy v0.99pb3
#
DISCID=dd099914
DTITLE=Autry, Gene - 80 Originals Hits and Rarities CD 1
DYEAR=2010
DGENRE=Country
TTITLE0=Dust
TTITLE1=Back In The Saddle Again
TTITLE2=Tumbling Tumbleweeds
TTITLE3=Sing Me A Song Of The Saddle
TTITLE4=The One Rose
TTITLE5=That Silver-Haired Daddy Of Mine
TTITLE6=Rhythm Of The Range
TTITLE7=Blueberry Hill
TTITLE8=El Rancho Grande
TTITLE9=Mellow Mountain Moon
TTITLE10=We Never Dream The Same Dream Twice
TTITLE11=When You And I Were Young Maggie
TTITLE12=Maria Elena
TTITLE13=Be Honest With Me
TTITLE14=Tears On My Pillow
TTITLE15=The Yellow Rose Of Texas
TTITLE16=Lonely River
TTITLE17=Tweedle ' O ' Twill
TTITLE18=At Mail Call Today
TTITLE19=Don't Live A Lie
EXTD=
EXTT0=
EXTT1=
EXTT2=
EXTT3=
EXTT4=
EXTT5=
EXTT6=
EXTT7=
EXTT8=
EXTT9=
EXTT10=
EXTT11=
EXTT12=
EXTT13=
EXTT14=
EXTT15=
EXTT16=
EXTT17=
EXTT18=
EXTT19=
PLAYORDER=
